<svg id="Слой_1" data-name="Слой 1" xmlns="http://www.w3.org/2000/svg" viewBox="0 0 343.29 475.08"><defs><style>.cls-1{fill:#ffad00;}</style></defs><path class="cls-1" d="M408.4,261.29q-16.56-21.41-50-29.4,42.54-21.7,37.4-73.67-1.71-18.84-10.42-32.68a65.58,65.58,0,0,0-23.56-22.27,129.74,129.74,0,0,0-32.27-12.85,254.21,254.21,0,0,0-40-6.42V12.05h-44V82q-11.43,0-34.83.57V12.05h-44V84q-9.42.28-27.7.29L78.64,84v46.82h31.69q21.69,0,25.41,19.42v81.94a29.09,29.09,0,0,1,4.57.29h-4.57V347.24q-2.28,14.55-16.56,14.56H87.49l-8.85,52.25h57.1q5.43,0,15.71.13t15.41.15v72.8h44V415.18q12,.3,34.83.29v71.66h44v-72.8a342.06,342.06,0,0,0,41.54-4.28,169.38,169.38,0,0,0,34.69-9.86q16.56-6.7,27.69-16.7A78.92,78.92,0,0,0,412,358.08q7.26-15.42,9.27-35.7Q425,282.71,408.4,261.29ZM211.68,134q2,0,11.28-.15t15.42-.29q6.13-.14,16.56.72a157.49,157.49,0,0,1,17.56,2.28,97.75,97.75,0,0,1,15.7,4.71,42.64,42.64,0,0,1,13.7,8,39.76,39.76,0,0,1,8.71,12,37.45,37.45,0,0,1,3.57,16.7,39.71,39.71,0,0,1-2.57,14.56,27.37,27.37,0,0,1-7.7,11,78.71,78.71,0,0,1-10.57,7.71,48.47,48.47,0,0,1-13.85,5.28q-8.42,2-14.69,3.14a122,122,0,0,1-15.71,1.57c-6.28.28-11,.48-14.27.57s-7.67.09-13.28,0-8.9-.14-9.85-.14V134ZM331.74,328.38a40.63,40.63,0,0,1-7,11.43,39.68,39.68,0,0,1-11.28,8.56,97.57,97.57,0,0,1-13.56,6,110.8,110.8,0,0,1-15.84,4q-9.3,1.71-16.29,2.42t-16.7,1.15q-9.71.42-15.13.42t-13.7-.14c-5.53-.09-9-.14-10.57-.14V265.57q2.28,0,13.56-.28c7.52-.2,13.66-.28,18.42-.28s11.33.28,19.7.85a169.25,169.25,0,0,1,21.13,2.56,140,140,0,0,1,18.7,5.29,54.36,54.36,0,0,1,16.42,8.7,42.89,42.89,0,0,1,10.56,13.14,40.73,40.73,0,0,1,1.57,32.83Z" transform="translate(-78.64 -12.05)"/></svg>