<svg id="Слой_1" data-name="Слой 1" xmlns="http://www.w3.org/2000/svg" viewBox="0 0 500 500"><defs><style>.cls-1{fill:#ffad00;}</style></defs><path class="cls-1" d="M41.35,113.28c61.63,52.19,169.76,144,201.55,172.64,4.26,3.87,8.84,5.83,13.59,5.83s9.31-1.95,13.57-5.79C301.87,257.3,410,165.47,471.63,113.28a9.35,9.35,0,0,0,1.31-12.91A37.14,37.14,0,0,0,443.58,86H69.4A37.14,37.14,0,0,0,40,100.37,9.35,9.35,0,0,0,41.35,113.28Z"/><path class="cls-1" d="M475.57,141.56a9.31,9.31,0,0,0-10,1.36c-68.34,57.93-155.57,132.19-183,156.92-15.4,13.91-36.78,13.91-52.22,0-29.25-26.35-127.2-109.62-183-156.9A9.35,9.35,0,0,0,32,150.05V385.3A37.45,37.45,0,0,0,69.4,422.72H443.58A37.45,37.45,0,0,0,481,385.3V150.05A9.36,9.36,0,0,0,475.57,141.56Z"/></svg>