<svg id="Слой_1" data-name="Слой 1" xmlns="http://www.w3.org/2000/svg" viewBox="0 0 500 500"><defs><style>.cls-1{fill:#ffad00;}</style></defs><path class="cls-1" d="M460.35,353.78l-62.16-62.16c-22.2-22.2-59.94-13.32-68.81,15.54-6.66,20-28.86,31.08-48.84,26.64C236.14,322.7,176.21,265,165.11,218.37c-6.66-20,6.66-42.18,26.64-48.84,28.85-8.88,37.73-46.62,15.53-68.82L145.13,38.56C127.37,23,100.73,23,85.19,38.56L43,80.74c-42.18,44.39,4.44,162,108.77,266.38s222,153.17,266.38,108.77l42.18-42.18C475.88,396,475.88,369.31,460.35,353.78Z"/></svg>